<svg xmlns="http://www.w3.org/2000/svg" version="1.1" xmlns:xlink="http://www.w3.org/1999/xlink" width="512" height="512" x="0" y="0" viewBox="0 0 152 152" style="enable-background:new 0 0 512 512" xml:space="preserve" class=""><g><g data-name="Layer 2"><g data-name="Black And White"><g data-name="02.B"><path d="M74.35 69.35h-10V50.84h9.45q6.48 0 9.39 2.23t2.91 7.3c0 2.94-.89 5.16-2.69 6.67s-4.85 2.28-9.06 2.31zM87.76 92A8.37 8.37 0 0 1 85 98.77c-1.87 1.6-4.55 2.39-8 2.39H64.3V82h13.51q9.95.05 9.95 10z" fill="#ffffff" opacity="1" data-original="#000000" class=""></path><path d="M140 0H12A12 12 0 0 0 0 12v128a12 12 0 0 0 12 12h128a12 12 0 0 0 12-12V12a12 12 0 0 0-12-12zM99.54 110q-7.44 5.91-22.06 6H45V36h28.75q15.44 0 23.49 5.66t8.05 16.43a19.06 19.06 0 0 1-2.86 10.6A16.73 16.73 0 0 1 94 75.18a16.85 16.85 0 0 1 9.62 6.15 17.92 17.92 0 0 1 3.35 11q.03 11.75-7.43 17.67z" fill="#ffffff" opacity="1" data-original="#000000" class=""></path></g></g></g></g></svg>