<?xml version="1.0" encoding="UTF-8"?>
<svg width="600" height="400" viewBox="0 0 600 400" fill="none" xmlns="http://www.w3.org/2000/svg">
  <!-- Fondo con gradiente -->
  <rect width="600" height="400" fill="url(#paint0_linear)" rx="12" />
  
  <!-- Patr贸n de fondo -->
  <g opacity="0.1">
    <circle cx="100" cy="100" r="50" stroke="white" stroke-width="2"/>
    <circle cx="500" cy="300" r="50" stroke="white" stroke-width="2"/>
    <circle cx="200" cy="250" r="30" stroke="white" stroke-width="2"/>
    <circle cx="400" cy="150" r="30" stroke="white" stroke-width="2"/>
  </g>
  
  <!-- Malla de conexi贸n -->
  <g opacity="0.2">
    <line x1="100" y1="100" x2="200" y2="250" stroke="white" stroke-width="1"/>
    <line x1="200" y1="250" x2="400" y2="150" stroke="white" stroke-width="1"/>
    <line x1="400" y1="150" x2="500" y2="300" stroke="white" stroke-width="1"/>
    <line x1="100" y1="100" x2="400" y2="150" stroke="white" stroke-width="1"/>
    <line x1="200" y1="250" x2="500" y2="300" stroke="white" stroke-width="1"/>
  </g>

  <!-- Iconos de c贸digo -->
  <g transform="translate(250, 180)" fill="white">
    <path d="M30,0 L60,40 L30,80 L0,40 L30,0 Z" opacity="0.8" />
  </g>
  
  <g transform="translate(300, 180)" fill="white">
    <circle cx="0" cy="0" r="20" opacity="0.8" />
  </g>
  
  <g transform="translate(200, 180)" fill="white">
    <rect x="-15" y="-15" width="30" height="30" opacity="0.8" />
  </g>
  
  <!-- Texto de projekto -->
  <text x="300" y="320" font-family="Arial, sans-serif" font-size="24" fill="white" text-anchor="middle">PROYECTO</text>
  
  <!-- Definici贸n del gradiente -->
  <defs>
    <linearGradient id="paint0_linear" x1="0" y1="0" x2="600" y2="400" gradientUnits="userSpaceOnUse">
      <stop stop-color="#6a11cb"/>
      <stop offset="1" stop-color="#2575fc"/>
    </linearGradient>
  </defs>
</svg>
